# xmcd
#
# Track frame offsets:
#	150
#	14800
#	33654
#	55700
#	76659
#	89667
#	110803
#	126157
#	137429
#	154524
#	165165
#
# Disc length: 2410 seconds
#
# Revision: 0
# Processed by: cddbd v1.5.2PL0 Copyright (c) Steve Scherf et al.
# Submitted via: EasyCDDAExtractor 10.0.2.1
#
DISCID=8509680b
DTITLE=Albert Fugett - Let's Don't Give up
DYEAR=2007
DGENRE=Gospel
TTITLE0=Track 1Let's Don't Give up
TTITLE1=Reasons
TTITLE2=Thank You God For Your Pecious Word
TTITLE3=My God And I Were Undefeatable
TTITLE4=Love You Faithful
TTITLE5=My God He's Still The Same
TTITLE6=Beautiful Mansion
TTITLE7=Kneel At The Feet Of Jesus
TTITLE8=Beholding My Savior's Face
TTITLE9=Walking And Talking
TTITLE10=The Battle Hymn Of The Republic
EXTD=
EXTT0=
EXTT1=
EXTT2=
EXTT3=
EXTT4=
EXTT5=
EXTT6=
EXTT7=
EXTT8=
EXTT9=
EXTT10=
PLAYORDER=
